<svg width="38" height="38" viewBox="0 0 38 38" fill="none" xmlns="http://www.w3.org/2000/svg">
<g filter="url(#filter0_b_104_5126)">
<circle cx="19" cy="19" r="19" fill="black"/>
</g>
<g clip-path="url(#clip0_104_5126)">
<path fill-rule="evenodd" clip-rule="evenodd" d="M19.667 10.263C19.4874 10.0941 19.2492 10 19.0015 10C18.7539 10 18.5157 10.0941 18.3361 10.263L10.5515 17.7006C10.3773 17.8645 10.2385 18.0618 10.1437 18.2805C10.0489 18.4992 10 18.7347 10 18.9727C10 19.2107 10.0489 19.4462 10.1437 19.6649C10.2385 19.8836 10.3773 20.0809 10.5515 20.2449L18.3924 27.7374C18.7561 28.0839 19.3452 28.0884 19.7142 27.7464C19.8036 27.6649 19.8751 27.5661 19.9243 27.4561C19.9734 27.3462 19.9993 27.2273 20.0001 27.1071C20.001 26.9868 19.9768 26.8677 19.9292 26.757C19.8816 26.6464 19.8115 26.5466 19.7233 26.4639L12.5479 19.6086C12.4607 19.5266 12.3913 19.4279 12.3438 19.3185C12.2964 19.2091 12.2719 19.0913 12.2719 18.9723C12.2719 18.8532 12.2964 18.7354 12.3438 18.626C12.3913 18.5166 12.4607 18.418 12.5479 18.336L19.6661 11.5347C19.7532 11.4528 19.8227 11.3542 19.8701 11.2448C19.9175 11.1355 19.942 11.0178 19.942 10.8988C19.942 10.7798 19.9175 10.6621 19.8701 10.5528C19.8227 10.4435 19.7541 10.3449 19.667 10.263Z" fill="white"/>
</g>
<g clip-path="url(#clip1_104_5126)">
<path fill-rule="evenodd" clip-rule="evenodd" d="M23.8002 14.1461C23.6924 14.0523 23.5495 14 23.4009 14C23.2523 14 23.1094 14.0523 23.0016 14.1461L18.3309 18.2781C18.2264 18.3692 18.1431 18.4788 18.0862 18.6003C18.0293 18.7218 18 18.8526 18 18.9848C18 19.1171 18.0293 19.2479 18.0862 19.3694C18.1431 19.4909 18.2264 19.6005 18.3309 19.6916L23.0355 23.8541C23.2536 24.0466 23.6071 24.0491 23.8286 23.8591C23.8822 23.8138 23.9251 23.7589 23.9546 23.6978C23.9841 23.6368 23.9996 23.5707 24.0001 23.5039C24.0006 23.4371 23.9861 23.3709 23.9575 23.3094C23.929 23.248 23.8869 23.1925 23.834 23.1466L19.5287 19.3381C19.4764 19.2926 19.4348 19.2377 19.4063 19.177C19.3778 19.1162 19.3631 19.0507 19.3631 18.9846C19.3631 18.9185 19.3778 18.853 19.4063 18.7922C19.4348 18.7315 19.4764 18.6766 19.5287 18.6311L23.7996 14.8526C23.8519 14.8071 23.8936 14.7523 23.9221 14.6916C23.9505 14.6309 23.9652 14.5654 23.9652 14.4993C23.9652 14.4332 23.9505 14.3678 23.9221 14.3071C23.8936 14.2464 23.8525 14.1916 23.8002 14.1461Z" fill="white"/>
</g>
<defs>
<filter id="filter0_b_104_5126" x="-10.2681" y="-10.2681" width="58.5361" height="58.5361" filterUnits="userSpaceOnUse" color-interpolation-filters="sRGB">
<feFlood flood-opacity="0" result="BackgroundImageFix"/>
<feGaussianBlur in="BackgroundImageFix" stdDeviation="5.13403"/>
<feComposite in2="SourceAlpha" operator="in" result="effect1_backgroundBlur_104_5126"/>
<feBlend mode="normal" in="SourceGraphic" in2="effect1_backgroundBlur_104_5126" result="shape"/>
</filter>
<clipPath id="clip0_104_5126">
<rect width="10" height="18" fill="white" transform="translate(10 10)"/>
</clipPath>
<clipPath id="clip1_104_5126">
<rect width="6" height="10" fill="white" transform="translate(18 14)"/>
</clipPath>
</defs>
</svg>
