<svg width="15" height="15" viewBox="0 0 15 15" fill="none" xmlns="http://www.w3.org/2000/svg">
<path d="M2.58226 0.460938C1.8974 0.460938 1.24059 0.732996 0.756326 1.21726C0.272058 1.70153 0 2.35834 0 3.04319V3.55965H14.4606V3.04319C14.4606 2.35834 14.1886 1.70153 13.7043 1.21726C13.22 0.732996 12.5632 0.460938 11.8784 0.460938H2.58226ZM14.4606 4.59255H0V12.3393C0 13.0242 0.272058 13.681 0.756326 14.1653C1.24059 14.6495 1.8974 14.9216 2.58226 14.9216H11.8784C12.5632 14.9216 13.22 14.6495 13.7043 14.1653C14.1886 13.681 14.4606 13.0242 14.4606 12.3393V4.59255ZM5.16451 7.69126C5.16451 7.9652 5.05569 8.22792 4.86198 8.42163C4.66828 8.61534 4.40555 8.72416 4.13161 8.72416C3.85767 8.72416 3.59495 8.61534 3.40124 8.42163C3.20753 8.22792 3.09871 7.9652 3.09871 7.69126C3.09871 7.41732 3.20753 7.15459 3.40124 6.96089C3.59495 6.76718 3.85767 6.65836 4.13161 6.65836C4.40555 6.65836 4.66828 6.76718 4.86198 6.96089C5.05569 7.15459 5.16452 7.41732 5.16451 7.69126ZM4.13161 11.8229C3.85767 11.8229 3.59495 11.714 3.40124 11.5203C3.20753 11.3266 3.09871 11.0639 3.09871 10.79C3.09871 10.516 3.20753 10.2533 3.40124 10.0596C3.59495 9.86589 3.85767 9.75706 4.13161 9.75706C4.40555 9.75706 4.66828 9.86589 4.86198 10.0596C5.05569 10.2533 5.16451 10.516 5.16451 10.79C5.16451 11.0639 5.05569 11.3266 4.86198 11.5203C4.66828 11.714 4.40555 11.8229 4.13161 11.8229ZM8.26322 7.69126C8.26322 7.9652 8.1544 8.22792 7.96069 8.42163C7.76699 8.61534 7.50426 8.72416 7.23032 8.72416C6.95638 8.72416 6.69366 8.61534 6.49995 8.42163C6.30624 8.22792 6.19742 7.9652 6.19742 7.69126C6.19742 7.41732 6.30624 7.15459 6.49995 6.96089C6.69366 6.76718 6.95638 6.65836 7.23032 6.65836C7.50426 6.65836 7.76699 6.76718 7.96069 6.96089C8.1544 7.15459 8.26322 7.41732 8.26322 7.69126ZM7.23032 11.8229C6.95638 11.8229 6.69366 11.714 6.49995 11.5203C6.30624 11.3266 6.19742 11.0639 6.19742 10.79C6.19742 10.516 6.30624 10.2533 6.49995 10.0596C6.69366 9.86589 6.95638 9.75706 7.23032 9.75706C7.50426 9.75706 7.76699 9.86589 7.96069 10.0596C8.1544 10.2533 8.26322 10.516 8.26322 10.79C8.26322 11.0639 8.1544 11.3266 7.96069 11.5203C7.76699 11.714 7.50426 11.8229 7.23032 11.8229ZM11.3619 7.69126C11.3619 7.9652 11.2531 8.22792 11.0594 8.42163C10.8657 8.61534 10.603 8.72416 10.329 8.72416C10.0551 8.72416 9.79236 8.61534 9.59866 8.42163C9.40495 8.22792 9.29613 7.9652 9.29613 7.69126C9.29613 7.41732 9.40495 7.15459 9.59866 6.96089C9.79236 6.76718 10.0551 6.65836 10.329 6.65836C10.603 6.65836 10.8657 6.76718 11.0594 6.96089C11.2531 7.15459 11.3619 7.41732 11.3619 7.69126Z" fill="black"/>
</svg>
