<svg width="15" height="15" viewBox="0 0 15 15" fill="none" xmlns="http://www.w3.org/2000/svg">
<path d="M7.53891 0.460938C9.45651 0.460938 11.2956 1.2227 12.6515 2.57865C14.0075 3.9346 14.7692 5.77366 14.7692 7.69126C14.7692 9.60886 14.0075 11.4479 12.6515 12.8039C11.2956 14.1598 9.45651 14.9216 7.53891 14.9216C5.62131 14.9216 3.78225 14.1598 2.42631 12.8039C1.07036 11.4479 0.308594 9.60886 0.308594 7.69126C0.308594 5.77366 1.07036 3.9346 2.42631 2.57865C3.78225 1.2227 5.62131 0.460938 7.53891 0.460938ZM7.08702 3.17231C6.96717 3.17231 6.85223 3.21992 6.76748 3.30466C6.68273 3.38941 6.63512 3.50435 6.63512 3.6242V8.14315L6.64235 8.22449C6.66139 8.32853 6.71632 8.4226 6.79757 8.49031C6.87882 8.55802 6.98125 8.59508 7.08702 8.59505H9.79839L9.87973 8.58782C9.99085 8.5677 10.0904 8.50671 10.1588 8.41685C10.2272 8.32699 10.2595 8.21478 10.2493 8.10232C10.2391 7.98986 10.1871 7.88529 10.1037 7.80921C10.0202 7.73313 9.91131 7.69105 9.79839 7.69126H7.53891V3.6242L7.53168 3.54286C7.51265 3.43882 7.45772 3.34476 7.37647 3.27705C7.29521 3.20934 7.19279 3.17227 7.08702 3.17231Z" fill="black"/>
</svg>
