<svg width="24" height="25" viewBox="0 0 24 25" fill="none" xmlns="http://www.w3.org/2000/svg">
<mask id="mask0_1_32" style="mask-type:alpha" maskUnits="userSpaceOnUse" x="0" y="0" width="24" height="25">
<rect y="0.5" width="24" height="24" fill="black"/>
<rect x="0.5" y="1" width="23" height="23" stroke="black" stroke-opacity="0.5"/>
</mask>
<g mask="url(#mask0_1_32)">
<path d="M8 14.5H16V13.95C16 13.2167 15.6333 12.625 14.9 12.175C14.1667 11.725 13.2 11.5 12 11.5C10.8 11.5 9.83333 11.725 9.1 12.175C8.36667 12.625 8 13.2167 8 13.95V14.5ZM12 10.5C12.55 10.5 13.0208 10.3042 13.4125 9.9125C13.8042 9.52083 14 9.05 14 8.5C14 7.95 13.8042 7.47917 13.4125 7.0875C13.0208 6.69583 12.55 6.5 12 6.5C11.45 6.5 10.9792 6.69583 10.5875 7.0875C10.1958 7.47917 10 7.95 10 8.5C10 9.05 10.1958 9.52083 10.5875 9.9125C10.9792 10.3042 11.45 10.5 12 10.5ZM2 22.5V4.5C2 3.95 2.19583 3.47917 2.5875 3.0875C2.97917 2.69583 3.45 2.5 4 2.5H20C20.55 2.5 21.0208 2.69583 21.4125 3.0875C21.8042 3.47917 22 3.95 22 4.5V16.5C22 17.05 21.8042 17.5208 21.4125 17.9125C21.0208 18.3042 20.55 18.5 20 18.5H6L2 22.5ZM5.15 16.5H20V4.5H4V17.625L5.15 16.5Z" fill="black"/>
<path d="M3.5 4.5V16.5V17.625V18.8136L4.34965 17.9824L5.3539 17H20H20.5V16.5V4.5V4H20H4H3.5V4.5ZM2.5 21.2929V4.5C2.5 4.08366 2.64241 3.7397 2.94105 3.44105C3.2397 3.14241 3.58366 3 4 3H20C20.4163 3 20.7603 3.14241 21.0589 3.44105C21.3576 3.7397 21.5 4.08366 21.5 4.5V16.5C21.5 16.9163 21.3576 17.2603 21.0589 17.5589C20.7603 17.8576 20.4163 18 20 18H6H5.79289L5.64645 18.1464L2.5 21.2929ZM15.5 13.95V14H8.5V13.95C8.5 13.4232 8.74618 12.9788 9.36151 12.6012C9.99097 12.2149 10.8575 12 12 12C13.1425 12 14.009 12.2149 14.6385 12.6012C15.2538 12.9788 15.5 13.4232 15.5 13.95ZM13.0589 9.55895C12.7603 9.85759 12.4163 10 12 10C11.5837 10 11.2397 9.85759 10.9411 9.55895C10.6424 9.2603 10.5 8.91634 10.5 8.5C10.5 8.08366 10.6424 7.7397 10.9411 7.44105C11.2397 7.14241 11.5837 7 12 7C12.4163 7 12.7603 7.14241 13.0589 7.44105C13.3576 7.7397 13.5 8.08366 13.5 8.5C13.5 8.91634 13.3576 9.2603 13.0589 9.55895Z" stroke="black" stroke-opacity="0.5"/>
</g>
</svg>
