<svg width="50" height="50" viewBox="0 0 50 50" fill="none" xmlns="http://www.w3.org/2000/svg">
<circle cx="25" cy="25" r="25" fill="#FF9640"/>
<path d="M28.6966 28.0983C27.9384 28.0983 27.2921 27.803 26.7577 27.2122C26.2242 26.6206 25.9574 25.9029 25.9574 25.0591C25.9574 24.2153 26.2225 23.4958 26.7528 22.9005C27.2839 22.3052 27.9281 22.0076 28.6856 22.0076C29.443 22.0076 30.0889 22.3034 30.6232 22.895C31.1576 23.4849 31.4248 24.2021 31.4248 25.0468C31.4248 25.8915 31.1592 26.6115 30.6281 27.2068C30.0987 27.8011 29.4548 28.0983 28.6966 28.0983ZM23.2696 35.2404C22.9894 35.2404 22.7545 35.1348 22.5649 34.9236C22.3754 34.7124 22.2806 34.4503 22.2806 34.1372V33.6962C22.2806 33.3995 22.3472 33.1164 22.4804 32.8469C22.6144 32.5784 22.7941 32.3627 23.0196 32.1998C23.8767 31.6555 24.7755 31.2386 25.7159 30.9491C26.6556 30.6597 27.6471 30.515 28.6905 30.515C29.7339 30.515 30.7258 30.6597 31.6662 30.9491C32.6067 31.2386 33.5054 31.6555 34.3625 32.1998C34.588 32.3636 34.7678 32.5793 34.9018 32.8469C35.035 33.1164 35.1016 33.3995 35.1016 33.6962V34.1372C35.1016 34.4503 35.0068 34.7124 34.8172 34.9236C34.6277 35.1348 34.3924 35.2404 34.1113 35.2404H23.2696ZM23.5479 33.4545V33.875H33.8343V33.4545C33.0254 32.9475 32.1871 32.5584 31.3194 32.2872C30.4516 32.0159 29.5753 31.8803 28.6905 31.8803C27.8064 31.8803 26.9305 32.0159 26.0628 32.2872C25.1959 32.5584 24.3576 32.9475 23.5479 33.4545ZM28.6905 26.733C29.1006 26.733 29.4548 26.5673 29.7531 26.236C30.0505 25.9047 30.1992 25.5106 30.1992 25.0536C30.1992 24.5967 30.0505 24.2021 29.7531 23.8699C29.4548 23.5386 29.1006 23.3729 28.6905 23.3729C28.2803 23.3729 27.9265 23.5386 27.6291 23.8699C27.3317 24.2021 27.183 24.5967 27.183 25.0536C27.183 25.5106 27.3317 25.9047 27.6291 26.236C27.9265 26.5673 28.2803 26.733 28.6905 26.733ZM21.9742 27.9413H14.6206C14.4466 27.9413 14.3007 27.8758 14.1831 27.7447C14.0662 27.6136 14.0078 27.4512 14.0078 27.2573C14.0078 27.0634 14.0662 26.9014 14.1831 26.7712C14.3007 26.6411 14.4466 26.576 14.6206 26.576H21.9742C22.1474 26.576 22.2928 26.6415 22.4105 26.7726C22.5282 26.9037 22.587 27.0661 22.587 27.26C22.587 27.4539 22.5282 27.6159 22.4105 27.7461C22.2928 27.8762 22.1474 27.9413 21.9742 27.9413ZM26.8766 17.0187H14.6206C14.4466 17.0187 14.3007 16.9531 14.1831 16.822C14.0662 16.691 14.0078 16.5285 14.0078 16.3346C14.0078 16.1407 14.0662 15.9787 14.1831 15.8486C14.3007 15.7184 14.4466 15.6533 14.6206 15.6533H26.8766C27.0498 15.6533 27.1952 15.7189 27.3129 15.8499C27.4306 15.981 27.4894 16.1435 27.4894 16.3374C27.4894 16.5312 27.4306 16.6932 27.3129 16.8234C27.1952 16.9536 27.0498 17.0187 26.8766 17.0187ZM23.581 22.48H14.6206C14.4466 22.48 14.3007 22.4144 14.1831 22.2834C14.0662 22.1523 14.0078 21.9898 14.0078 21.7959C14.0078 21.6021 14.0662 21.4401 14.1831 21.3099C14.3007 21.1797 14.4466 21.1146 14.6206 21.1146H24.2832C24.1386 21.3267 24.007 21.542 23.8886 21.7604C23.7701 21.9789 23.6667 22.2187 23.581 22.48Z" fill="white"/>
</svg>
