<svg width="20" height="21" viewBox="0 0 20 21" fill="none" xmlns="http://www.w3.org/2000/svg">
<path d="M9.19765 17.7156C13.3939 17.7156 16.7957 14.3139 16.7957 10.1176C16.7957 5.92129 13.3939 2.51953 9.19765 2.51953C5.00137 2.51953 1.59961 5.92129 1.59961 10.1176C1.59961 14.3139 5.00137 17.7156 9.19765 17.7156Z" fill="white"/>
<path d="M17.0356 18.5154C16.8916 18.5154 16.7477 18.4594 16.6437 18.3554L15.1561 16.8678C14.9402 16.6519 14.9402 16.3 15.1561 16.076C15.372 15.8601 15.724 15.8601 15.9479 16.076L17.4355 17.5636C17.6515 17.7796 17.6515 18.1315 17.4355 18.3554C17.3235 18.4594 17.1796 18.5154 17.0356 18.5154Z" fill="white"/>
</svg>
