<svg width="50" height="50" viewBox="0 0 50 50" fill="none" xmlns="http://www.w3.org/2000/svg">
<circle cx="25" cy="25" r="25" fill="#826AF9"/>
<path d="M33.9293 15.792H16.0721C14.5928 15.792 13.3936 16.9163 13.3936 18.3032V33.3701C13.3936 34.757 14.5928 35.8813 16.0721 35.8813H33.9293C35.4086 35.8813 36.6078 34.757 36.6078 33.3701V18.3032C36.6078 16.9163 35.4086 15.792 33.9293 15.792Z" stroke="white" stroke-width="0.648165" stroke-linejoin="round"/>
<path d="M27.2328 25.0004C27.9725 25.0004 28.5721 24.4383 28.5721 23.7448C28.5721 23.0514 27.9725 22.4893 27.2328 22.4893C26.4932 22.4893 25.8936 23.0514 25.8936 23.7448C25.8936 24.4383 26.4932 25.0004 27.2328 25.0004Z" fill="white"/>
<path d="M31.6967 25.0004C32.4364 25.0004 33.036 24.4383 33.036 23.7448C33.036 23.0514 32.4364 22.4893 31.6967 22.4893C30.957 22.4893 30.3574 23.0514 30.3574 23.7448C30.3574 24.4383 30.957 25.0004 31.6967 25.0004Z" fill="white"/>
<path d="M27.2328 29.185C27.9725 29.185 28.5721 28.6228 28.5721 27.9294C28.5721 27.236 27.9725 26.6738 27.2328 26.6738C26.4932 26.6738 25.8936 27.236 25.8936 27.9294C25.8936 28.6228 26.4932 29.185 27.2328 29.185Z" fill="white"/>
<path d="M31.6967 29.185C32.4364 29.185 33.036 28.6228 33.036 27.9294C33.036 27.236 32.4364 26.6738 31.6967 26.6738C30.957 26.6738 30.3574 27.236 30.3574 27.9294C30.3574 28.6228 30.957 29.185 31.6967 29.185Z" fill="white"/>
<path d="M18.3041 29.185C19.0438 29.185 19.6434 28.6228 19.6434 27.9294C19.6434 27.236 19.0438 26.6738 18.3041 26.6738C17.5645 26.6738 16.9648 27.236 16.9648 27.9294C16.9648 28.6228 17.5645 29.185 18.3041 29.185Z" fill="white"/>
<path d="M22.768 29.185C23.5077 29.185 24.1073 28.6228 24.1073 27.9294C24.1073 27.236 23.5077 26.6738 22.768 26.6738C22.0283 26.6738 21.4287 27.236 21.4287 27.9294C21.4287 28.6228 22.0283 29.185 22.768 29.185Z" fill="white"/>
<path d="M18.3041 33.3705C19.0438 33.3705 19.6434 32.8084 19.6434 32.115C19.6434 31.4215 19.0438 30.8594 18.3041 30.8594C17.5645 30.8594 16.9648 31.4215 16.9648 32.115C16.9648 32.8084 17.5645 33.3705 18.3041 33.3705Z" fill="white"/>
<path d="M22.768 33.3705C23.5077 33.3705 24.1073 32.8084 24.1073 32.115C24.1073 31.4215 23.5077 30.8594 22.768 30.8594C22.0283 30.8594 21.4287 31.4215 21.4287 32.115C21.4287 32.8084 22.0283 33.3705 22.768 33.3705Z" fill="white"/>
<path d="M27.2328 33.3705C27.9725 33.3705 28.5721 32.8084 28.5721 32.115C28.5721 31.4215 27.9725 30.8594 27.2328 30.8594C26.4932 30.8594 25.8936 31.4215 25.8936 32.115C25.8936 32.8084 26.4932 33.3705 27.2328 33.3705Z" fill="white"/>
<path d="M17.8574 12.9062V14.0223M32.1431 12.9062V14.0223" stroke="white" stroke-width="0.648165" stroke-linecap="round" stroke-linejoin="round"/>
<path d="M35.7147 19.6035H14.2861" stroke="white" stroke-width="0.648165" stroke-linejoin="round"/>
</svg>
