<svg width="50" height="50" viewBox="0 0 50 50" fill="none" xmlns="http://www.w3.org/2000/svg">
<ellipse cx="25.001" cy="25" rx="25.001" ry="25" fill="#2CD9D9"/>
<path d="M17.0192 37.0319H37.4295C38.181 37.0319 38.7902 37.641 38.7902 38.3925C38.7902 39.1439 38.181 39.7531 37.4295 39.7531H15.6585C14.9071 39.7531 14.2979 39.1439 14.2979 38.3925V16.6224C14.2979 15.8709 14.9071 15.2617 15.6585 15.2617C16.41 15.2617 17.0192 15.8709 17.0192 16.6224V37.0319Z" fill="black"/>
<path d="M22.0936 31.1598C21.5796 31.708 20.7185 31.7358 20.1703 31.2219C19.6221 30.7079 19.5943 29.8468 20.1083 29.2986L25.2108 23.8561C25.7079 23.3259 26.5339 23.2799 27.0868 23.7517L31.114 27.1881L36.3612 20.542C36.8268 19.9522 37.6825 19.8515 38.2723 20.3172C38.8621 20.7828 38.9628 21.6384 38.4972 22.2282L32.3741 29.9838C31.8958 30.5896 31.01 30.6767 30.4228 30.1757L26.308 26.6646L22.0936 31.1598Z" fill="black"/>
</svg>
